<svg id="Layer_1" data-name="Layer 1" xmlns="http://www.w3.org/2000/svg" viewBox="0 0 717.27 234.17"><defs><style>.cls-1{fill:#fbf813;}.cls-2{fill:#f89899;}.cls-3{fill:#fafdf6;}.cls-4{fill:#0c19c0;}.cls-5{fill:#6bfdfd;}.cls-6{fill:#fa9d00;}.cls-7{fill:#f6050b;}</style></defs><title>Untitled-3</title><path class="cls-1" d="M389.54,512.35,284.85,460.26c28.67-57.6,99.51-81.48,156.94-52.91s81.11,99.49,52.44,157.09-99.5,81.49-156.93,52.91a116.75,116.75,0,0,1-55.58-59.24Z" transform="translate(-281.72 -395.27)"/><path class="cls-2" d="M541,516.44l-4,71s7,12,17,2,14-15,14-15l15,16s7,8,14,0l15-15,14,14s7,7,16,0l-2.71-64.91a39.91,39.91,0,0,0-11.74-27A39.18,39.18,0,0,0,609,487.44s-27-9-47,3C562,490.44,544,497.44,541,516.44Z" transform="translate(-281.72 -395.27)"/><circle class="cls-3" cx="277.27" cy="134.18" r="17"/><circle class="cls-3" cx="317.27" cy="134.18" r="17"/><circle class="cls-4" cx="269.27" cy="134.18" r="8"/><circle class="cls-4" cx="310.27" cy="134.18" r="8"/><path class="cls-5" d="M660,516.44l-4,71s7,12,17,2,14-15,14-15l15,16s7,8,14,0l15-15,14,14s7,7,16,0l-2.71-64.91a39.91,39.91,0,0,0-11.74-27A39.18,39.18,0,0,0,728,487.44s-27-9-47,3C681,490.44,663,497.44,660,516.44Z" transform="translate(-281.72 -395.27)"/><circle class="cls-3" cx="396.27" cy="134.18" r="17"/><circle class="cls-3" cx="436.27" cy="134.18" r="17"/><circle class="cls-4" cx="388.27" cy="134.18" r="8"/><circle class="cls-4" cx="429.27" cy="134.18" r="8"/><path class="cls-6" d="M779,516.44l-4,71s7,12,17,2,14-15,14-15l15,16s7,8,14,0l15-15,14,14s7,7,16,0l-2.71-64.91a39.91,39.91,0,0,0-11.74-27A39.18,39.18,0,0,0,847,487.44s-27-9-47,3C800,490.44,782,497.44,779,516.44Z" transform="translate(-281.72 -395.27)"/><circle class="cls-3" cx="515.27" cy="134.18" r="17"/><circle class="cls-3" cx="555.27" cy="134.18" r="17"/><circle class="cls-4" cx="507.27" cy="134.18" r="8"/><circle class="cls-4" cx="548.27" cy="134.18" r="8"/><path class="cls-7" d="M898,516.44l-4,71s7,12,17,2,14-15,14-15l15,16s7,8,14,0l15-15,14,14s7,7,16,0l-2.71-64.91a39.91,39.91,0,0,0-11.74-27A39.18,39.18,0,0,0,966,487.44s-27-9-47,3C919,490.44,901,497.44,898,516.44Z" transform="translate(-281.72 -395.27)"/><circle class="cls-3" cx="634.27" cy="134.18" r="17"/><circle class="cls-3" cx="674.27" cy="134.18" r="17"/><circle class="cls-4" cx="626.27" cy="134.18" r="8"/><circle class="cls-4" cx="667.27" cy="134.18" r="8"/></svg>