<svg xmlns="http://www.w3.org/2000/svg" viewBox="0 0 312.39 74.24"><defs><style>.cls-1{fill:#f89899;}.cls-2{fill:#fafdf6;}.cls-3{fill:#0c19c0;}.cls-4{fill:#6bfdfd;}.cls-5{fill:#fa9d00;}.cls-6{fill:#f6050b;}</style></defs><title>Asset 9</title><g id="Layer_2" data-name="Layer 2"><g id="Layer_1-2" data-name="Layer 1"><path class="cls-1" d="M2.7,21.8,0,69.81s4.73,8.11,11.49,1.35S21,61,21,61L31.1,71.84s4.74,5.41,9.47,0L50.71,61.69l9.47,9.47s4.73,4.73,10.82,0L69.17,27.27A27,27,0,0,0,61.23,9,26.48,26.48,0,0,0,48.68,2.19s-18.25-6.08-31.78,2C16.9,4.22,4.73,9,2.7,21.8Z"/><circle class="cls-2" cx="14.88" cy="30.59" r="11.49"/><circle class="cls-2" cx="41.92" cy="30.59" r="11.49"/><circle class="cls-3" cx="9.47" cy="30.59" r="5.41"/><circle class="cls-3" cx="37.19" cy="30.59" r="5.41"/><path class="cls-4" d="M83.17,21.8l-2.71,48S85.2,77.92,92,71.16,101.42,61,101.42,61l10.15,10.82s4.73,5.41,9.46,0l10.15-10.15,9.46,9.47s4.74,4.73,10.82,0l-1.83-43.89A27,27,0,0,0,141.69,9a26.44,26.44,0,0,0-12.54-6.84s-18.26-6.08-31.78,2C97.37,4.22,85.2,9,83.17,21.8Z"/><circle class="cls-2" cx="95.34" cy="30.59" r="11.49"/><circle class="cls-2" cx="122.39" cy="30.59" r="11.49"/><circle class="cls-3" cx="89.93" cy="30.59" r="5.41"/><circle class="cls-3" cx="117.65" cy="30.59" r="5.41"/><path class="cls-5" d="M163.63,21.8l-2.7,48s4.73,8.11,11.49,1.35S181.89,61,181.89,61L192,71.84s4.73,5.41,9.47,0l10.14-10.15,9.47,9.47s4.73,4.73,10.81,0L230.1,27.27A27,27,0,0,0,222.16,9a26.48,26.48,0,0,0-12.55-6.84s-18.26-6.08-31.78,2C177.83,4.22,165.66,9,163.63,21.8Z"/><circle class="cls-2" cx="175.8" cy="30.59" r="11.49"/><circle class="cls-2" cx="202.85" cy="30.59" r="11.49"/><circle class="cls-3" cx="170.39" cy="30.59" r="5.41"/><circle class="cls-3" cx="198.12" cy="30.59" r="5.41"/><path class="cls-6" d="M244.1,21.8l-2.71,48s4.73,8.11,11.5,1.35S262.35,61,262.35,61l10.14,10.82s4.74,5.41,9.47,0L292.1,61.69l9.47,9.47s4.73,4.73,10.82,0l-1.83-43.89A27,27,0,0,0,302.62,9a26.49,26.49,0,0,0-12.54-6.84s-18.26-6.08-31.78,2C258.3,4.22,246.12,9,244.1,21.8Z"/><circle class="cls-2" cx="256.27" cy="30.59" r="11.49"/><circle class="cls-2" cx="283.31" cy="30.59" r="11.49"/><circle class="cls-3" cx="250.86" cy="30.59" r="5.41"/><circle class="cls-3" cx="278.58" cy="30.59" r="5.41"/></g></g></svg>