<svg xmlns="http://www.w3.org/2000/svg" viewBox="0 0 1659.5 943.5"><defs><style>.cls-1,.cls-2,.cls-3,.cls-4,.cls-5,.cls-6,.cls-7,.cls-8{fill:none;stroke:#5e5d5d;stroke-linecap:round;stroke-miterlimit:10;stroke-width:10px;}.cls-2{stroke-dasharray:0 20.11;}.cls-3{stroke-dasharray:0 20.69;}.cls-4{stroke-dasharray:0 20.12;}.cls-5{stroke-dasharray:0 20.35;}.cls-6{stroke-dasharray:0 19.85;}.cls-7{stroke-dasharray:0 20.07;}.cls-8{stroke-dasharray:0 20.14;}</style></defs><title>Asset 8</title><g id="Layer_2" data-name="Layer 2"><g id="Layer_1-2" data-name="Layer 1"><line class="cls-1" x1="1654.5" y1="5.5" x2="1654.5" y2="5.5"/><line class="cls-2" x1="1634.39" y1="5.49" x2="15.55" y2="5"/><line class="cls-1" x1="5.5" y1="5" x2="5.5" y2="5"/><line class="cls-3" x1="5.46" y1="25.69" x2="5.02" y2="263.65"/><line class="cls-1" x1="5" y1="274" x2="5" y2="274"/><line class="cls-4" x1="25.12" y1="274.01" x2="1644.44" y2="274.5"/><line class="cls-1" x1="1654.5" y1="274.5" x2="1654.5" y2="274.5"/><line class="cls-5" x1="1654.46" y1="294.85" x2="1654.02" y2="528.83"/><line class="cls-1" x1="1654" y1="539" x2="1654" y2="539"/><line class="cls-2" x1="1633.89" y1="539" x2="15.05" y2="539"/><line class="cls-1" x1="5" y1="539" x2="5" y2="539"/><line class="cls-6" x1="5" y1="558.85" x2="5" y2="787.08"/><line class="cls-1" x1="5" y1="797" x2="5" y2="797"/><line class="cls-7" x1="25.07" y1="797.01" x2="837.96" y2="797.49"/><line class="cls-1" x1="848" y1="797.5" x2="848" y2="797.5"/><line class="cls-8" x1="847.93" y1="817.64" x2="847.54" y2="928.43"/><line class="cls-1" x1="847.5" y1="938.5" x2="847.5" y2="938.5"/></g></g></svg>